<?xml version="1.0" encoding="UTF-8"?>
<!-- Generator: Adobe Illustrator 25.3.1, SVG Export Plug-In . SVG Version: 6.00 Build 0) -->
<svg xmlns="http://www.w3.org/2000/svg" xmlns:xlink="http://www.w3.org/1999/xlink" version="1.1" id="Livello_1" x="0px" y="0px" viewBox="0 0 296 80" style="enable-background:new 0 0 296 80;" xml:space="preserve"> <style type="text/css"> .st0{fill:#EC1C24;} </style> <g> <path class="st0" d="M0.5,36.8L6.2,1.3h9.7c2.7,0,4.7,0.1,6.1,0.3c1.4,0.2,2.5,0.6,3.5,1.1c1.8,0.9,3.2,2.2,4.1,3.8 c0.9,1.6,1.3,3.5,1.3,5.7c0,2.2-0.5,4.3-1.4,6.2c-1,1.9-2.3,3.3-3.9,4.4c-1,0.6-2.1,1-3.4,1.3c-1.3,0.3-3.4,0.4-6.2,0.4h-1.5h-2.5 l-2,12.4H0.5z M13.1,16.9H14c3.1,0,5.1-0.3,6.2-1c1.1-0.6,1.6-1.7,1.6-3.3c0-1.3-0.5-2.3-1.4-2.9c-0.9-0.6-2.4-0.9-4.4-0.9h-1.7 L13.1,16.9z"/> <path class="st0" d="M23.3,36.8L41.1,1.3H53l7.5,35.5h-9.6l-1.4-6.7H37l-3.4,6.7H23.3z M40.6,22.2h7.5L46.5,14 c-0.2-0.8-0.3-1.6-0.4-2.2c-0.1-0.6-0.1-1.3-0.1-1.8c-0.3,1-0.7,1.8-0.9,2.6c-0.3,0.7-0.5,1.3-0.7,1.6L40.6,22.2z"/> <path class="st0" d="M60.6,36.8l5.6-35.5h6.1c4.6,0,7.8,0.1,9.8,0.4C84,2,85.6,2.4,86.8,3c2.6,1.3,4.6,3.3,6,5.8 c1.4,2.6,2.1,5.6,2.1,9.1c0,3.4-0.6,6.4-1.9,8.9c-1.2,2.6-3.1,4.7-5.6,6.5c-1.8,1.2-3.9,2.1-6.3,2.6c-2.4,0.5-6.5,0.8-12.2,0.8 h-1.3H60.6z M71.4,28.9c0.7,0,1.2,0.1,1.5,0.1c0.3,0,0.6,0,0.9,0c3.8,0,6.7-1,8.7-2.9c2-1.9,3-4.7,3-8.4c0-3-0.7-5.2-2.2-6.6 c-1.4-1.4-3.8-2-7-2h-1.8L71.4,28.9z"/> <path class="st0" d="M115.5,37.8c-2.5,0-4.8-0.3-6.9-1c-2.1-0.7-3.9-1.7-5.5-3.1c-1.7-1.5-3-3.3-4-5.5c-1-2.2-1.4-4.5-1.4-7 c0-2.7,0.4-5.1,1.2-7.4c0.8-2.3,2-4.4,3.6-6.3c1.9-2.2,4.2-3.9,6.9-5.1c2.7-1.2,5.7-1.8,8.9-1.8c5.3,0,9.6,1.5,12.9,4.6 c3.3,3.1,4.9,7.1,4.9,12c0,2.6-0.4,5.1-1.2,7.4c-0.8,2.3-2,4.4-3.6,6.3c-2,2.3-4.3,4-6.9,5.2C121.6,37.2,118.7,37.8,115.5,37.8 M117.6,9.2c-2.9,0-5.3,1-7.3,3.1c-2,2.1-2.9,4.7-2.9,7.8c0,2.7,0.8,4.9,2.3,6.5c1.6,1.6,3.6,2.4,6.2,2.4c2.8,0,5.3-1.1,7.2-3.2 c2-2.2,3-4.8,3-7.9c0-2.6-0.8-4.7-2.4-6.3C122.2,10,120.1,9.2,117.6,9.2"/> <path class="st0" d="M146.4,36.8l-9.5-35.5H147l4.4,20.3c0.1,0.5,0.2,1.1,0.3,1.8c0.1,0.7,0.2,1.4,0.2,2.3c0.3-0.9,0.6-1.7,0.9-2.4 c0.3-0.7,0.5-1.3,0.7-1.7l9.4-20.2h10.6l-18.8,35.5H146.4z"/> <path class="st0" d="M163.8,36.8l17.8-35.5h11.9l7.5,35.5h-9.6l-1.4-6.7h-12.4l-3.4,6.7H163.8z M181.1,22.2h7.5L187,14 c-0.2-0.8-0.3-1.6-0.4-2.2c-0.1-0.6-0.1-1.3-0.1-1.8c-0.3,1-0.7,1.8-0.9,2.6c-0.3,0.7-0.5,1.3-0.7,1.6L181.1,22.2z"/> <path d="M282.6,11.2c-2.4-2.2-5-4-7.9-5.5c-9.8-5.3-21.7-6-32.1-2.3c-10.3,3.7-18,11.4-22.5,21.3c-2.7,5.9-19.1,43.5-22.4,51 c-1.5,3.3-0.4,3.8,2.8,3.8c11.6-0.2,51.4,0.4,59.6-0.4c4.2-0.4,8-1.3,11.5-2.7c5-2,9.3-5,13-8.9c6.9-7.5,11-17.2,11-27.3 C295.5,29.2,290.7,18.5,282.6,11.2 M285.6,52.5c-2.5,5.7-5.8,10.2-10.1,13.5c-1.1,0.9-2.3,1.7-3.6,2.4c-0.4,0.2-0.8,0.4-1.2,0.6 c-2,1-4.2,1.7-6.4,2.3c-2.4,0.6-5,0.9-7.7,1c-1.1,0-2.1,0.1-3.2,0.1c-6.3,0.1-12.6,0-18.8,0v0c-0.2,0-0.4,0-0.6,0 c-1.2,0-2.5,0-3.7,0c-2.6,0-5.2,0-7.8,0c-3.9,0-7.7,0-11.6,0.1c-2.5,0-3.4-0.4-2.2-3c1.6-3.6,3.2-7.2,4.8-10.9 c1.1-2.5,2.2-4.9,3.2-7.4c0.4-1,0.9-2,1.3-3c2.6-6,5.3-12.1,7.9-18.1c0.5-1.1,0.9-2.1,1.4-3.2c0.8-1.9,1.9-3.6,3-5.2 c1.2-1.7,2.5-3.2,4-4.5c0.5-0.4,1-0.9,1.5-1.3c1.1-0.9,2.3-1.7,3.5-2.5c11.7-7,27.7-6.3,38.4,3.9c1,1,2,2,2.9,3.1 c1.4,1.7,2.6,3.4,3.6,5.3C288.7,33.8,289.4,43.6,285.6,52.5"/> <path class="st0" d="M256.3,28.5c3,0,5.8,1.2,7.9,3.1c0.5,0.5,1.3,0.5,1.9,0.2l11-7.3c0.5-0.3,0.6-1,0.2-1.5l0,0 c-0.8-0.9-1.6-1.8-2.5-2.7c-8.5-8.1-20.9-9.2-30.7-4.5c-0.8,0.4-1.1,1.5-0.6,2.2l7,10.6c0.4,0.6,1.1,0.8,1.8,0.6 C253.6,28.8,255,28.5,256.3,28.5"/> <path class="st0" d="M256.3,51.9c-3.2,0-6.1-1.3-8.2-3.3c-0.4-0.4-1.1-0.5-1.6-0.1L221.3,65c-2,1.3-1.7,2.4,0.7,2.4 c1.9,0,3.7,0,5.6,0c2.2,0,4.4,0,6.7,0c1.1,0,2.1,0,3.2,0c0.2,0,0.3,0,0.5,0v0c5.4,0,10.7,0.1,16.1,0c0.9,0,1.8,0,2.7-0.1 c2.3-0.1,4.5-0.4,6.6-0.9c2-0.5,3.8-1.1,5.5-2l0,0c0.7-0.4,0.9-1.2,0.5-1.9l-7.3-11.1c-0.3-0.5-1-0.7-1.6-0.5 C259.2,51.6,257.8,51.9,256.3,51.9"/> <path class="st0" d="M278.8,27.1l-11,7.2c-0.6,0.4-0.8,1.2-0.6,1.8c0.5,1.3,0.7,2.6,0.7,4.1c0,3.1-1.2,5.8-3.1,7.9 c-0.5,0.5-0.5,1.3-0.2,1.9l7.1,10.7c0.5,0.8,1.6,1,2.3,0.3c3.1-2.7,5.6-6.2,7.5-10.6c3.3-7.7,2.7-16-1.2-23l0,0 C280.1,26.9,279.4,26.7,278.8,27.1"/> <path class="st0" d="M244.7,40.2c0-3.1,1.2-5.9,3.2-8c0.5-0.5,0.6-1.3,0.2-1.9l-7.2-11c-0.4-0.6-1.2-0.7-1.7-0.3 c-0.4,0.4-0.9,0.7-1.3,1.1c-1.3,1.2-2.4,2.4-3.4,3.9c-1,1.4-1.9,2.9-2.6,4.5c-0.4,1-0.8,1.9-1.3,2.9c-2,4.5-4,9-5.9,13.5 c-0.6,1.5-1.3,2.9-1.9,4.4c-0.9,2.1-1.8,4.2-2.8,6.3c-0.7,1.5-1.3,3.1-2,4.6c-1.2,2.6-0.1,3.5,2.3,1.9l24.6-16.2 c0.6-0.4,0.8-1.1,0.6-1.8C244.9,42.9,244.7,41.6,244.7,40.2"/> <path d="M247.7,40.2c0,4.8,3.9,8.6,8.6,8.6c4.8,0,8.6-3.9,8.6-8.6c0-4.8-3.9-8.6-8.6-8.6C251.6,31.6,247.7,35.4,247.7,40.2"/> <path class="st0" d="M75.1,61.1c1-1.9,1.4-3.9,1.4-6.2c0-2.2-0.4-4.1-1.3-5.7c-0.9-1.6-2.3-2.9-4.1-3.8c-1-0.5-2.2-0.9-3.5-1.1 c-1.4-0.2-3.4-0.3-6.1-0.3h-9.7l-5.6,35.5h9.4l2-12.4h2.5h1.5c2.8,0,4.9-0.1,6.2-0.4c1.3-0.3,2.5-0.7,3.4-1.3 C72.9,64.4,74.2,63,75.1,61.1 M65.9,58.6c-1.1,0.6-3.2,1-6.2,1h-0.9l1.3-8.1h1.7c2,0,3.4,0.3,4.4,0.9c0.9,0.6,1.4,1.6,1.4,2.9 C67.5,56.8,67,57.9,65.9,58.6"/> <path class="st0" d="M86.7,44L68.9,79.5h10.3l3.4-6.7h12.4l1.4,6.7h9.6L98.6,44H86.7z M86.2,64.9l3.8-8.1c0.2-0.4,0.4-0.9,0.7-1.6 c0.3-0.7,0.6-1.6,0.9-2.6c0,0.6,0.1,1.2,0.1,1.8c0.1,0.6,0.2,1.4,0.4,2.2l1.6,8.3H86.2z"/> <path class="st0" d="M132.4,45.6c-1.2-0.6-2.8-1-4.7-1.3c-1.9-0.3-5.2-0.4-9.8-0.4h-6.1l-5.6,35.5h6.9h1.3c5.7,0,9.8-0.3,12.2-0.8 c2.4-0.5,4.6-1.4,6.3-2.6c2.5-1.8,4.4-3.9,5.6-6.5c1.2-2.6,1.9-5.5,1.9-8.9c0-3.5-0.7-6.6-2.1-9.1C137.1,48.9,135.1,47,132.4,45.6 M128.1,68.8c-2,1.9-4.9,2.9-8.7,2.9c-0.3,0-0.6,0-0.9,0c-0.3,0-0.8,0-1.5-0.1l3-19.8h1.8c3.2,0,5.5,0.7,7,2 c1.4,1.4,2.2,3.6,2.2,6.6C131,64.1,130,66.9,128.1,68.8"/> <polygon class="st0" points="166.9,52.2 168.1,44 147.7,44 142.1,79.5 162.5,79.5 163.8,71.6 152.8,71.6 153.7,65.7 164,65.7 165.2,57.9 155,57.9 155.9,52.2 "/> <polygon class="st0" points="178.3,71 182.6,44 173,44 167.4,79.5 188.7,79.5 190,71 "/> <path d="M18.2,57.6c-1.2-6-4.4-8.9-10.3-9.3c-0.5,0-1.3,0.3-1.7,0.6c-0.2,0.2-0.4,0.4-0.6,0.5c-6.8,6.8-6.9,17.5-0.2,24.5 c4.8,5,12.6,6.7,18.7,4.2c-4.8-4.7-5.5-10.6-5.5-16.4C18.6,60.4,18.5,59,18.2,57.6"/> <path d="M35.6,59.5c-0.6-5.3-3.8-10.1-8.6-13c-3.9-2.4-8-3-12.3-1.8c5.2,2.6,8,7.1,8.8,14.3c0.1,1.3,0.2,2.6,0.3,3.8 c0.1,1.6,0.2,3.1,0.4,4.6c0.5,3.3,1.8,5.8,4.1,7.6c0.6,0.5,0.8,0.6,1.6-0.2c0.2-0.2,0.3-0.3,0.5-0.5C34.3,70.3,36.2,64.9,35.6,59.5 "/> </g> </svg>